Input #0, mov,mp4,m4a,3gp,3g2,mj2, from 'https://s3-eu-central-1.ionoscloud.com/athlyzertv/67582a8f-57ed-4793-8ca3-eb4890488ca0/C5318C78-74CA-702C-98C1-69257ABA2DB8/1_Ereignis_1.mp4':
  Metadata:
    major_brand     : isom
    minor_version   : 512
    compatible_brands: isomiso2avc1mp41
    encoder         : Lavf59.16.100
  Duration: 00:00:02.37, start: 0.023000, bitrate: 3470 kb/s
  Stream #0:0[0x1](und): Video: h264 (Main) (avc1 / 0x31637661), yuv420p(progressive), 1920x1080 [SAR 1:1 DAR 16:9], 3425 kb/s, 30 fps, 30 tbr, 15360 tbn (default)
    Metadata:
      handler_name    : VideoHandler
      vendor_id       : [0][0][0][0]
  Stream #0:1[0x2](und): Audio: aac (LC) (mp4a / 0x6134706D), 48000 Hz, stereo, fltp, 131 kb/s (default)
    Metadata:
      handler_name    : SoundHandler
      vendor_id       : [0][0][0][0]
[h264 @ 0x7fdfab109300] Using auto hwaccel type videotoolbox with new default device.
Stream mapping:
  Stream #0:0 -> #0:0 (h264 (native) -> h264 (libx264))
  Stream #0:1 -> #0:1 (aac (native) -> aac (native))
Press [q] to stop, [?] for help
[libx264 @ 0x7fdfab205c00] using SAR=1/1
[libx264 @ 0x7fdfab205c00] using cpu capabilities: MMX2 SSE2Fast SSSE3 SSE4.2 AVX FMA3 BMI2 AVX2
[libx264 @ 0x7fdfab205c00] profile High, level 4.0, 4:2:0, 8-bit
[libx264 @ 0x7fdfab205c00] 264 - core 164 r3094 bfc87b7 - H.264/MPEG-4 AVC codec - Copyleft 2003-2022 - http://www.videolan.org/x264.html - options: cabac=1 ref=3 deblock=1:0:0 analyse=0x3:0x113 me=hex subme=7 psy=1 psy_rd=1.00:0.00 mixed_ref=1 me_range=16 chroma_me=1 trellis=1 8x8dct=1 cqm=0 deadzone=21,11 fast_pskip=1 chroma_qp_offset=-2 threads=6 lookahead_threads=1 sliced_threads=0 nr=0 decimate=1 interlaced=0 bluray_compat=0 constrained_intra=0 bframes=3 b_pyramid=2 b_adapt=1 b_bias=0 direct=1 weightb=1 open_gop=0 weightp=2 keyint=250 keyint_min=25 scenecut=40 intra_refresh=0 rc_lookahead=40 rc=crf mbtree=1 crf=23.0 qcomp=0.60 qpmin=0 qpmax=69 qpstep=4 ip_ratio=1.40 aq=1:1.00
Output #0, mp4, to '/Users/janoskoschwitz/src/s3-node-worker/output/01GX3NVZWF7NTRSY97HSRGQGQ2/C02E12B6-321A-A75E-8B62-88F02A4B6A21/janos2.mp4.mp4':
  Metadata:
    major_brand     : isom
    minor_version   : 512
    compatible_brands: isomiso2avc1mp41
    encoder         : Lavf59.16.100
  Stream #0:0(und): Video: h264 (avc1 / 0x31637661), nv12(progressive), 1920x1080 [SAR 1:1 DAR 16:9], q=2-31, 30 fps, 15360 tbn (default)
    Metadata:
      handler_name    : VideoHandler
      vendor_id       : [0][0][0][0]
      encoder         : Lavc59.18.100 libx264
    Side data:
      cpb: bitrate max/min/avg: 0/0/0 buffer size: 0 vbv_delay: N/A
  Stream #0:1(und): Audio: aac (LC) (mp4a / 0x6134706D), 48000 Hz, stereo, fltp, 128 kb/s (default)
    Metadata:
      handler_name    : SoundHandler
      vendor_id       : [0][0][0][0]
      encoder         : Lavc59.18.100 aac
frame=    2 fps=0.0 q=0.0 size=       0kB time=00:00:00.14 bitrate=   2.6kbits/s dup=1 drop=0 speed=0.802x    frame=   28 fps=0.0 q=0.0 size=       0kB time=00:00:01.02 bitrate=   0.4kbits/s dup=1 drop=0 speed=1.32x    frame=   46 fps= 34 q=0.0 size=       0kB time=00:00:01.64 bitrate=   0.2kbits/s dup=1 drop=0 speed= 1.2x    frame=   60 fps= 31 q=29.0 size=       0kB time=00:00:02.09 bitrate=   0.2kbits/s dup=1 drop=0 speed=1.09x    [mp4 @ 0x7fdfab204540] Starting second pass: moving the moov atom to the beginning of the file
frame=   70 fps= 19 q=-1.0 Lsize=     635kB time=00:00:02.34 bitrate=2217.4kbits/s dup=1 drop=0 speed=0.636x    
video:594kB audio:37kB subtitle:0kB other streams:0kB global headers:0kB muxing overhead: 0.615500%
[libx264 @ 0x7fdfab205c00] frame I:1     Avg QP:18.41  size:110737
[libx264 @ 0x7fdfab205c00] frame P:18    Avg QP:20.02  size: 20095
[libx264 @ 0x7fdfab205c00] frame B:51    Avg QP:23.00  size:  2652
[libx264 @ 0x7fdfab205c00] consecutive B-frames:  1.4%  2.9%  4.3% 91.4%
[libx264 @ 0x7fdfab205c00] mb I  I16..4: 22.5% 31.7% 45.8%
[libx264 @ 0x7fdfab205c00] mb P  I16..4:  1.1%  1.0%  0.3%  P16..4: 32.6% 11.5%  5.5%  0.0%  0.0%    skip:48.1%
[libx264 @ 0x7fdfab205c00] mb B  I16..4:  0.0%  0.0%  0.0%  B16..8: 25.1%  1.1%  0.1%  direct: 0.2%  skip:73.3%  L0:51.2% L1:46.5% BI: 2.3%
[libx264 @ 0x7fdfab205c00] 8x8 transform intra:34.7% inter:64.2%
[libx264 @ 0x7fdfab205c00] coded y,uvDC,uvAC intra: 51.4% 53.8% 20.1% inter: 3.9% 4.1% 0.1%
[libx264 @ 0x7fdfab205c00] i16 v,h,dc,p: 26% 48% 17% 10%
[libx264 @ 0x7fdfab205c00] i8 v,h,dc,ddl,ddr,vr,hd,vl,hu: 28% 28% 30%  2%  2%  2%  2%  2%  3%
[libx264 @ 0x7fdfab205c00] i4 v,h,dc,ddl,ddr,vr,hd,vl,hu: 37% 31% 11%  3%  4%  4%  4%  3%  4%
[libx264 @ 0x7fdfab205c00] i8c dc,h,v,p: 52% 28% 17%  3%
[libx264 @ 0x7fdfab205c00] Weighted P-Frames: Y:0.0% UV:0.0%
[libx264 @ 0x7fdfab205c00] ref P L0: 70.4%  6.8% 17.2%  5.6%
[libx264 @ 0x7fdfab205c00] ref B L0: 90.2%  8.4%  1.4%
[libx264 @ 0x7fdfab205c00] ref B L1: 95.8%  4.2%
[libx264 @ 0x7fdfab205c00] kb/s:2083.61
[aac @ 0x7fdfab207380] Qavg: 2908.714
